<svg xmlns="http://www.w3.org/2000/svg" viewBox="0 0 981.11 945.77"><defs><style>.cls-1{fill:none;stroke:#fff;stroke-linejoin:round;stroke-width:8px;}.cls-2{fill:#fff;}</style></defs><g id="Layer_2" data-name="Layer 2"><g id="Layer_1-2" data-name="Layer 1"><path id="path2987" class="cls-1" d="M871.17,574.09l2.94,27.43L887.83,625,879,627l-20.58,18.62,12.74,25.48,4.9,1,40.17,18.62L977,723,917.22,844.54l-62.71-14.7L831,824l-16.66-10.78,7.84-14.69-27.43-51.94-9.8-31.36-21.56-70.55,3.92-52.91,53.89-22.54,9.8,20.58Z"/><path id="path2989" class="cls-1" d="M821,570.22l-52.66,22.17-4,36.3-1.63,16.89,31.6,101.66L822,799.67l-8.08,14.21L794,828l-23.56,18.71-22.18,25.64-6.92,6.93-20.79,9-4.16,9-13.16,6.93-5.55,9v-4.85L672,925.67l-12.48,6.93-6.93,7.62L645,941.61l-2.08-18.71-6.23-16.63-29.1-29.79-22.87-32.57L606.86,708.1l-36-52.66-5.54-11.78L575,627l9.7-12.47,1.39-7.62L578.45,600l11.09-9-7.62-16.63-4.16-21.48,2.08-8.31-5.54-15.24,13.86-2.78,17.32-10.39-4.85-19.4,9.7-10.39,13.16-22.87L620,455.89,642.2,444.8l6.24-40.19,12.47-36,28.41-15.93,8.31-2.78,4.85-5.54,22.87-.69.69,2.77,10.4-12.47,17.32.69L778.7,370l7.62,19.4,1.39,10.39h-6.24l-6.93,11.09,4.85,11.78L773.16,449l-2.08,11.09,3.46,20.09,7.63,15.94v9.7l15.24,13.85Z"/><path id="path2985" class="cls-1" d="M565.72,643.65l5.79,12.24,36.06,52.79L584.71,844.86l-62.45,46-41.53,37-39.92-8.37L399,913.11l-3.22-14.49-28.65-32.51L355.5,853.87l-3.86-10.94-14.81-8L323,819.11l-2.9,8.69-29-11.59L266,805.58l-1.6-7.08-15.14-3.22-7.4-9.66,3.22-11.91L241.54,767l2.25-1.28,5.15-35.42,5.48-1.93-1-4.83,11.27-10.62.32-5.15,4.18-1,3.87-24.14L286,654V643.33l7.73-7.72,4.19-11.27,4.82-1.61,1-7.73h4.51l1-6.44,5.8-6.11-1.29-4.83,6.44-1.61V591.5l11.27-6.44,2.25-14.8,3.22-2.26,2.25-21.25,3.54-12.87-6.44-5.48-.32-13.52-10-4.5L340.69,492l6.12,1.28,2.57-2.25h4.51l6.76-7.4.65-16.74L370,480.44l5.15,4.18-.65,9.66,22.22,7.4-1.93,7.09,2.57-4.19,16.1,4.51,6.76-3.22,1-4.51,8.05-4.5,8.69-7.41.33-6.44,15.13,8.37,1.61,7.73,7.72,8.05L466.89,520s17.7,8.37,16.42,9S520,601.16,520,601.16L539.32,614Z"/><path id="path2986" class="cls-1" d="M197.33,553.17,221,530.44l2.39-27.22-5.68-10.77,1.8-6,5.68,1.19,1.2,1.5,27.52,3.89-2.4,18.54,3.59,11.07,9.58-9.27,3.29-37.69,9.57,9.87,12,.6,3.58,1.79,13.77-8.37,1.79,6.88-5.09,8.07.6,5.09,11.67,19.74,5.09-9.57,5.38.3,10.17,4.49v14l7.18,5.69-4.19,12.26-2.09,21.24-3.89,2.69-2.1,15-11.66,6.58.9,4.19-6.88,1.5,2.09,4.78-6.88,6L308,616l-3.89-.29-.6,7.17-5.08,1.8L294,636.34l-7.78,7.77.3,11.07L273.91,682.7l-4.79,23.63-4.18,1.5v5.68L253.27,724l1.49,4.79-6.28,2.69-4.78,34.4-3.89,3.29-9-1.49-9.27-12.27-5.09,1.2L215,749.41l-5.09-7.48.6-5.68-6-2.39-5.39-9h-8.37L183,735.65l-7.18-1.2-13.16,7.48L139,750l-6.88,6.28-3.59-.3-8.38,8.38-2.39,6-8.38,6.88-1.79-24.53-3.29-3,.3-32.91-2.4-1.49.9-12.57,1.5-10.46,2.09-1.5-3-3,1.19-6-5.38-5.39-5.38,1.2-.3-12.57-6.29-4.18H84L76.78,649.8l.59-2.7-7.18-8.37.3-15.86,8.68-13.46-.6-23.33-2.09-3.89,2.09-6.28L81.86,572l6.58,6.28.3,2.1,11.67,8.07,3.89-1.19,10.47,10.17,1.49,3.89,9.28,7.47,11.36,12,23.34,5.38,6-.29,3.89,3.29-.3,29.91L178.48,686l5.09,4.49v13.76l7.78,3.89,18.24-20.34,4.19-9.87,22.14-23.34-1.8-10.47-5.38-14.06-8.68-18.24,5.09-7.48-11.07-15.26-6.28-12-3.89-9.88L199.72,558Z"/><path id="path2988" class="cls-1" d="M197.31,553.37l24-22.41,3.14-27.13-6.68-11,2-5.9,5.11.79,1.18,1.57,27.91,4.32-3.54,18.87,3.54,11,11-9.83,2.76-38.13,9.82,10.22,11.8.39,3.54,2,13.36-7.86,2.36,6.68-5.5,7.86,1.18,5.9,12.18,19.66,4.33-9.83,6.29-.4,13.75-18.47,6.69,2,1.57-2.35,5.5-.79,6.29-6.68V466.88l8.65,13.37,5.5,4.32-.39,11L397,502.26l-2.36,6.29L397.4,505l16.12,4.33,7.25-3.82.84-3.62,8.06-4.72,8.34-7.51v-7.22l.55-6.95-6.39-24.74-4.45-3.89V436.58l6.95-.83.28-2.23-10.29-5.83.56-5.56,1.67-2.78L426.61,406l-10.56-1.67L413,405.45l-5.28,8.06-4.45-4.45-2.78,2.5h-8.34l-4.72,3.62-6.95-.28-.28-4.17-5.28-4.17-3.62.28-2.78,3.61-6.95,9.18-4.72,3.89-8.62-2.78-10.84-11.12-2.22,1.67-3.62.27-1.39-4.16L314,404.34l-3.33-.84-2.78,1.95H306l-7.5-7.51h-5.56l-17-12.23-12.51-11.39-5-.56-1.11,3.89-6.12-.28-10.56-6.11L242,365.7,236.76,369l-.56-5L214,345.13l-3.61,4.45-13.62-1.95-7.51-6.95-11.67.56-25,20.57-7.78,13.9L142.8,391l-.83,1.94.56,8.34,2.22,28.91-5.56,5.28.28,6.12-4.17-.28-2.5,1.94L133.91,456v10.84l10,4.73,7.5,9.45,7,17.51,6.12,6.39.55,4.45L178.11,515l6.39-.56,8.06,16.4Z"/><path id="path2990" class="cls-1" d="M210.35,349.58l-13.62-1.67-7.51-6.67H178.11l-25.86,20.85-7.5,14.45-1.11,12.79-1.39,3.06L145.31,431l-5.56,5,.55,5.83h-4.72l-2.23,1.95.56,12.23-.56,10.84L127,459.93H114.45l-7.78-7.5-.28-2.23,3.89-10.28,4.73-5L107.78,426l-2.5-5.84-3.34.28.56-3.34-3.06-5.28-10.56-1.11-3.06-4.17L78,407.4,71.37,413l-5.84-5.83L60,407.4l-3.34-4.73-1.11-2.22-8.89,6.67-4.45-.56-5.28-5-.28-26.69,14.73-15.56.28-5,.83-1.94-12-9.73-5.28-3.34-6.67,2.23L18,340.68l-7.23-12.51-3.61-6.11,3.33-1.95-6.11-5.83-.28-11.4h6.67l3.61-3.34L24.67,299l2.78-3.62,7-.55.27-6.67,7.79,1.11,2.78-3.34,1.94-5.28-.83-5.56-2.5-5.56-3.62.84-.83,2.22L29.67,264l.83-7.22,5.56-5-1.66-1.66L28.84,252l2.22-7.23,5.84-3.61,7-1.11-2-11.12-7.23,6.95-3.33-8.34-5.28.56,8.89-8.9-4.45-5,5-4.17L35,203.92,36.62,200l-3.89-8.62,17.51,2,.83-6.12v-3.61l8.34,2.5,23.91,2,2.5,1.11h5.56l8.62-5.84-7.23-7.78-.56-4.45,12.51-19.46,2-.83,8.34,5,5.83,10.29,5-2.22,8.61-6.12L137.24,170l13.9,4.17h12.79l9.45-2.78,10-10.56,5,6.11-.56,8.9,4.17,8.62,26.13,31.13-11.39-3.06-5.56-1.11-11.4-7H179.5l-.84-1.11-1.39,2.5,3.62,5.56-4.73,1.39.56,5,7.5,2.5-5.84,7.51-1.66,6.11,1.66,4.73,2.51,2.22,3.05-7.78,4.73,16.68,5.28-.56-.28,5.28-4.45,6.67-1.94,6.12,7.78,10.56,3.89.28-1.66,7.51,5.55,2.78-3.89,2.5V299l-1.66,4.45-.84,7.5,2.5,3.61L201.18,334Z"/><path id="path2992" class="cls-1" d="M343,392.19l-4.72,3.74-6.49-2L325.27,402l-.2,4.72-14-3.15-3.93,3.34-1.37-.78-8.06-8.26h-5.11l-16.51-11.4-12.38-11.2-4.92-1.38-2.36,4.52-4.71-.78-11.6-6.49,1.77-5.5L237,369.79l-1.37-5.9L214,345.61l-3.34,4.91-10.42-16.7-1.57-19.27-2.76-3.14,1.58-8.26,1.57-4.71-.39-7.67,3.93-2.36-5.51-2.75,2-7.66-3.73-.2-8.65-10.22,2.55-6.29,3.93-7.27,1.18-5.11-6.29,1.17-4.32-16.31-2.95,7.67-3.54-3.35-.78-5.11,1.18-5.7,6.48-6.68-8.45-2.95v-5.3l5.7-1.18-4.72-5.9,1.77-2.75,1,1.57h10.23L202,211.17,216,215.1l3.34-.79,2-2.75,4.52.39,3.15,5.51,5.7,4.12,3.14,1.58,5.31,10.41,2.75,2.36h1.57l-1.57,1.77,2.16,9.44,8.85,8.84,3.14-3.14h7.27l9,6.09,12.58,8.25,2.36.79v5.7l-1.18,5.5,1.18,2.95,3.93,2.56,4.72,9,7.27,3.34,6.69,2,3.73,2.55,6.49-8.45,3.93,5.7,4.72,6.09-.59,7.47,2.75,7.86,1.37,1.77,3.54-4.32,8.06,5.11-1,8.45-2,8.06h-11l-5.12,10.22,2.76,4.13,2.94.39-2.75,9.24,4.13,10.42L339,380h4.52l3.93,2.94-3,2.76-.2,5.11Z"/><path id="path2994" class="cls-2" d="M377.41,300.66l-2.78,14.17-.83,20.29-6.95-.55-1.39,2.5h-4.73L356,342.91l-7.51,1.94,1.67-4.17,5.56-5-7.79-5.28.84,4.17-3.06-.28-1.11,5-10.29-.55-.83.28-5.28,10.84,3.06,4.17,3.05.55-3.61,8.9,8.06,16.95h5l3.34,1.95-3.06,3.06-.28,5.83-6.39,4.45-5.28-2.22-7.23,8.06.56,5.84,4.45.55,1.39,3.61,3.33.28,2.78-2.5,10,11.4,9.17,3.06,5.84-4.45,9.17-12,2.78-.28,5,3.33,1.12,4.45,6.95.83,5.28-3.33,8.34-.56,2.5-2.78,4.45,5,5.83-8.62,1.95-.83,11.4,1.66,4.44,4.45,2.78.28L433,399.06l-6.39.27-12.23-15.84,4.72-3.34-.27-8.33-8.62-2.51-6.95-6.95.28-8.89L401,346.8l-3.34-11.4-6.39-.28-.84-3.61-5.28.28-4.45-5.28.28-2.78,2.23-.56L381,320.11l-.28-4.72,2.78-.28v-4.45l-4.17-3.33Z"/><path id="path2996" class="cls-1" d="M688.3,352.88,662,369,648.6,404.38l-5.9,40.88-22.41,11.4,4.33,7.08-13.76,22.4-10.22,11.4,4.71,18.87L587.67,527l-13,2.75L581,545.5,578.62,553l3.54,20.44,8.26,17.69-12.19,9,7.86,6.68-.78,7.47-10.22,13-9.44,16.9-25.94-29.48-20.45-13-36.95-71.94-14.94-8.65-5.89-15.33-7.86-6.68-.4-7.47-14.94-7.08L437.11,483l.39-7.86-5.9-23.59-4.32-4.72.39-10.22,7.47-.78-.79-3.15-11-4.32.39-6.29,2.75-2.75V405.56l5.51,5.11h2.35l-1.18-11,6.29-.39,3.15-4.33,14.54-.39-.39-13.36,2.36-.79v-3.54l-9.44-8.25,1.18-2.76,1.58-9.43.39-2.75,2.36-4.33h5.11l-.39-8.25,2.75-5.9,6.68-3.54,4.32,1.18,3.54,5.11L504.33,321h14.54l12.19-3.93,17.29,7.07,7.47-7.46,5.51,6.29,5.89-.4,9.44-9.83,44-.78,2.75-3.93.39-5.11,11-1.18,4.72,4.32,10.61,1.18,4.72,8.26h4.32l7.08,8.64-.79,3.54Z"/><path id="path2998" class="cls-1" d="M184.34,160.46l-11,11L163.9,175l-8.85.2s-3.93,0-4.91-.2-12.58-2.95-13-4.32-2.76-12.39-2.76-12.39-5.5,5.31-8.25,6.29a45.94,45.94,0,0,1-5.7,1.58s-4.72-9.24-5.51-9.83-8.45-5.5-8.45-5.5-1.57.78-1.57-.79-1-2.56-2.55-5.31-3.54-3.93-7.08-5.89-7.86-2-6.68-3.74a19.3,19.3,0,0,0,2-4.52l.79-7.47-4.72-8.25-3-1.38-.59-17.69,5.7.79,3-10.42,3.54-3L94.91,70l6.88,3.15.39,4.32,7.86.59.39-5.7,5.11,5.5.2-11.59,6.09.39,3-7.67,5.11-4.12,1.38,1.37,3.93-4.91,4.72,3.93,20.83-.79L163.9,52l7.86,1,3.54,1.57,4.52-1.37,5.89-7.08,4.13-29.87,2.56-9.83L196.13,4H202l4.13,8.26,3.34,9.23.59,10.81,1.18,12.39.78,11.59-2.16,1,.59,3.93,4.91,4.91-.59,5.5-2.16,3.94.79,8.45,3.93,3.54L219.72,85l3.14.59-.39,17.89.79,21.42,7.86,6.68,3.93.2-1,6.68-10.42,15.14-3.34,2.55h-8.65l-6.68-5.3-16.12.39,1.77,3.54-1.57,2.55-3.54-1.57Z"/><path id="path3000" class="cls-1" d="M331,289.2l-3.34,9.24-3.15-5.11-6.88,8.84-4.91-2.95-6.88-2.55-6.49-2.36-4.52-9.44-4.52-2.94-.39-4.13,1-9.44-2.95-1-20.24-13.95-7.67-.2-2.95,3.34-9.43-9.83-2.36-9.63,2.75-1.18h-2.55l-2.56-3-5.7-10.41-8.06-4.72-3.73-6.09-3.54-.4-2.75,3.34h-1.57L192,184.44l-4.32-8.65.79-8.85-5.31-5.3,1.77-6.49,3.93,1.77,1.77-1.77-2-4.32h16.51l6.49,4.91h8.65s1,0,2.95-1.57,4.91-7.87,4.91-7.87,6.68-8.45,6.68-9.23.2-5.31.2-5.31l-3.74-.2-8.05-6.29-.59-39.7,31.84,1.18,5.7,6.09,5.89-1,6.29,6.29,4.52-7.27,8.46.59,9.43-6.69h11L308.56,82l4.72,7.27,5.3,6.29,2.36,7.08,5.11,2.36,20.25-.79,3.73-2.36,3,12-.79,5.11-4.12,8.85-2.17,4.32,6.29,11.21L341,147.48l-4.32,1.38-3.74,4.91-1.77,5.9,1.38,4.91-8.85.79-1.37,5.31,3.54,2.16-5.11,11.6-10.22,9.63-.2,24.17,2.75,7.67,5.7,1.18,4.72,6.09v4.72l4.52,2,2.36,13.76,4.52,6.29-2.16,18.67Z"/><path id="path3002" class="cls-1" d="M359.48,264.24s-3.61,4.73-4.17,4.59-9.45-1.25-9.45-1.25l-3.48,3.05h-8.61l1-10.28-5.14-6.53-2-14-4-1.95-.55-5-5-6.39-4.86.14L310,218.1l.14-24.6,10.7-9.45,5-11.12-4-2.78,1.8-5.42h8.62l-.83-5.28s-.84-5.28,1.52-7.09,1.39-3.89,4-4.73,15-4.44,15-4.44-6.53-9.87-6.39-11,6.81-13.76,6.81-13.76l4.87-1.81,9.73-3.75,3.75,6.67,7.09.28,7.08,4,4.59-5,2.5-3.19,2.64.83.84,4.59s3.19,7.64,3.19,8.2,5.84,3.75,5.84,3.75l4.31,1.25.42,4.73-8.34,13.2.83,1.39,4.59,1,11,13.48,3.19-.13,5.42,11.67h3.2l1.11-2.64,4.31.56-.14,3.19-4,3.34,6,8.61a17.82,17.82,0,0,1,.55,3.06c0,1-4,5.56-4.44,6.12s2.22,2.64,2.22,2.64l3.47.28,4.45,9,3.89,4-1.66,5.28-3.62,1.11-3.47,4.17-2.36,4.73-1.26,4.59.56,2.08,6,2.92-9.73,5.84-6.4-2.78-4.58,2.5,6.25,7.78.84,3.48-5.42,5.42-3.76-3.2-7.36-1.95-7.37-4.44-3.2-8.06-2.08-.7-2.09,6.53-7.5,6.4L377.83,264l-10.57.84-2.5-4.87-4.86-1.66-1.11,3.61Z"/><path id="path3004" class="cls-1" d="M505.11,319.86l-28.69,18.67-2.56-5.7-4.52-.19-5.9,2.55-3.53,6.68,1.57,7.87-5.9.19L453,353.86l-2,12L449.68,369l10.23,7.86-.79,3.74L457.35,382l.2,13.56-14.74-.39-2.95,4.72-6.88.19-.2-.59h-6.29l-13-15.92,4.91-3.53.2-8.26-8.85-2.55-7.46-7.08,1.17-8.65L397.4,336l-5.9-.59-1.37-3.54-4.13.39-6.09-6.09,1-2.36,2.16-.59-2.16-3.54-.59-4.52h2.95V311l-4.13-3.74-1-5.31-2.95,12.78-1.37,20.64-6.88-1-1.58,3.34-3.93-.2-4.91,5.7-9,2.16,1.77-4.71,6.09-4.92-7.47-4.91,1.18,4.13-3.34-.2,1.77-11.4-7.87-5.11-3.34,4.32L334.7,321l-3.34-11.2,1.38-4.33-5.7-7.27,3.73-9.43,2.75-19.07,8.65.2,3.34-2.36,9,.59,4.72-4.33-1.38-2.75.79-3.93,6.09,2.16,2.56,4.72H377l5.5-2.56c2.56-1.17,3.93-2.75,6.69-3.53s6.48-6.88,6.48-6.88l2.16-5.31,2.95,1.57,2.36,7.28,7.08,4.52,8.25,2.35,3.34,2.95,4.92-5.5-.59-2.36-6.68-8.45,5.3-3.15,6.1,3.35,9.63-5.9-5.31-2.16L434,237.51l1-5.12s2-4.91,2.76-5.5,4.12-3.73,4.12-3.73l2.75-.2,2.17-4.91-5.11-4.33-3.15-8.65-4.32-.19L432,201.93l4.72-5.9v-2.95l-7.07-9,5.89-4.12,4.72.19,3.15,3.74,6.28-11.4,1.18-.79.4-4.72L465,157.7l3.14,4.72-2.55,3.15,8.05,13-.78,3-2.36,1.18L468,186.4l1.77,4.33-.59,6.09-4.71,4.72,1.37,5.3.59,8.65,2.95,4.33L468,224.34,477,239.08l-.59,7.47,2.75,3.73h2.95l-.59,10.81-4.72,3.34,5.31,5.51,1.37,5.5-.78,2.16,2.16,14,1.18,9.43.59,6.68-3.74,1.18-1.18,2.36s2.95,1.77,3.15,2.56,14.35.78,14.35.78Z"/><path id="path3006" class="cls-1" d="M634.64,302,624,303l-.2,5.5-3.14,4.32-44,.2-9.83,9.83-5.9.39-5.5-6.29L548.16,325l-17.5-7.66-12.18,4.52-14-1-5.3-6.09-14.55-.39-3.93-2.95,1.57-2.75,4.13-1-3.73-30.46.59-1.57-.59-5.7-6.29-5.7,4.32-3.15,1.77-10.61-3.54-.2-3.34-3.54,1.57-8.06-9.83-13.75,2.17-4.92-3.93-4.52.19-9.24-1.77-5.7,4.92-3.34.78-6.68-2.55-3.93,3.34-3.74,2.55-2.16.4-2.75-8.65-13.17,3.34-2.95,3.54-1,13.95-11.6-1.57-7.86,11.6-8.45,5.7,2.36,14.54-11.8,3.54-.19,7.86-9.63,4.92,7.47,8.84,15.52,2.75.59,2.76,8.06,8.84,7.08,7.47-4.33,3-1.57.59-4.52,8.45,1,6.49,5.51,3.73,5.3,4.32.59,1.38,3.93L583,162.62l-5.7,8.06-1,10.61-1.76,11.2L578,205.86l-2.94,11.6,8.64,13.76L582,241.63l-1.57,4.52s13.17,19.66,14,19.07,9.24-9.63,9.24-9.63l3.73.59,3.93,9.43,3.15,5.11,1.57-5.11,6.48,7.47.2,6.88,5.7,9.43Z"/><path id="path3008" class="cls-1" d="M777.14,122.52l-6.29,9v5.11L763,140.21l-2.75,6.68v5.9l-17.69,35.38-9.83,10.22L726,211.76l-.79,6.29-16.12-5.9v4.32l-17.29,8.26L685.16,222,684,218.05h-6.69l-7.47-5.51-5.5-.78-2.75,3.53-.39,2.76-13.37,1.57-16.12,2.75-7.47,1.18-6.29,3.54-9.82,12.18.39,7.87-2.75,3.14-3.54-5.5-1.57,7.86H594l-3.53,2-8.57-5.52,12.37,16.68,9.45-10.15,3.06.28L611.46,267l2.36,4.59,1.95-5.7,6.67,7.5-.14,6.68L634,301.77l6.12,5,10.56.83,4.73,8.62H659l7,7.78-1.11,4.45,23.35,24.46,10.28-2.5,4.45-5.84,22.24-.27,1.11,3.05,10.28-12.78,17.52.55,12.23,17.79,9.73-8.34,21.12-14.73,26.13-14.73,7-4.73,9.45-13.62,25.29-25,7.51-11.12,6.39-.84,1.95-6.11L874.69,247l-.83-10-8.62-17.79-5.56-4.72-8.89-15.85L844.4,187.8,840.5,170l-5.56-7.78-8.06-4.17-1.39-7.79-6.39-1.66-1.39-4.73-9.17-5.56-11.68-4.17-8.34-1.94-7.22-.28Z"/><path id="path3010" class="cls-1" d="M777.34,122.52l-6.68,9.24.39,4.91L763.19,140l-2.56,6.1v7.27l-17.88,36-10.23,9.43-6.28,12.78-.4,8.06-16.51-6.88v3.34l-17.1,9L685,222.37l-1.38-3.54-6.88-.59-6.88-5.3-5.11-1-2.94,3.15v3.34L646.43,220l-22,3.74-5.9,3.73-10.22,11.6.4,8.25-3.15,3.54-3.14-4.72-2,7.28-5.9-.59L590,254.41l-8-4.52-2.17-3.74,2-5.11,1.77-10-9.44-13.76L578,205.47l-3.73-12.78,1.57-13.56.4-8.26,5.7-8.06,8.84-4.32,20.64-10,.39-7.28L624,137.07v-12l11-1,8.85-12.77,3-16.12,7.86.39,4.13,1.77,5.3.4,17.3-8.06,15.14-.79L715.62,85l7.47-1.57,16.12,4.71,9-1.17,1.38-4.13,5.89.59,3.54-4.33,5.31-.78,5.5,4.71-3.14,3.35,2.16,7.27,4.52,6.88h2l-.78,4.52-2.16,2.36,2.16,6.48.78,4.33,3.15-.2Z"/><path id="path2999" class="cls-1" d="M183.72,690.46l-.18,14.61,7.3,2.38,19-20.1,3.83-10L236,654.66l-1.82-10.23-5.85-15.7-8.22-16.62,5.48-8-11.32-14.25L207.64,577l-4.38-11.69-5.66-11.87-4.93-22.1-8-16.8-6.39.91-13.88-6,.36-4.75-6.21-6.39-7.12-17-7.3-9.32-10.6-5.3-6.94-7.12-12.6.55-7.49-7.67v-2.56l3.84-9.86,4.93-4.93L107.37,426,105,420.15h-3.29l1.28-3.29-3.83-5.11-10.41-.91-2.93-4.39-7.67.92-6.94,5.48-6-5.85-5.11.18-3.83-4.75-.92-2.74-8.58,7.49-4.57-.73-4.93-4.75-.91-27L51.85,359l-.36-4.57,1.09-2-11.69-9.86-5.66-3.29-6.57,2.38-10.78-.74L7.1,322.07l2.93-2-5.12-5.29L4,302.71l7.67.19,2.38-3.11,10.59-1.1,3.65-3.47,6.39-.36-.18-6.94,8,.91,2.55-3.29,2-4.74-.91-6.21-2.37-5.12-3.47.73-.92,2.74L29.75,264l.37-7.67,6.39-4.56-2.37-2.2-5.85,3.11,2.92-7.85,5.67-4,6.94-.73-2-11.14-6.94,7.48-4-8.76-4.57.36,8.77-8.76L30.12,214l5.48-3.84-.55-6.21,1.83-4.2-4.39-8.22,17.9,1.83.73-6V182.9l8.77,3.29L83.63,188l3.11,1.28,4-.18,9.32-5.66-7.67-8.4L92,171.39l13.34-20.45-1.28-3.11-2.74-5.48L94,138l-5.84-1.83.18-1.82L90.75,131l.92-7.67-4.75-8.22-2.56-1.83L82.9,95.42l6,1.09,2.56-10.59,3.83-2.74-.73-13.33,7.12,2.92.37,4.56,7.49.92.73-6.4,4.93,6,.18-11.69,7.12.19L124,59.07l5.47-3.84,2,1.28,4-4.93,4.57,4,20.27-1.1L164,52.13l7.49.55,3.11,1.46,4.93-.73,6-7.49,4.38-30.14,2.56-9.31,4-2.38,5.12.19,7.67,17.17,2.92,34.33-2.74,1.65.91,4,4.94,4.75-.55,5.48-2.38,4.39.92,8,4,3.65,2.74-3.1,2.93.91,31.41,1.28,6.21,6,5.66-.92,6.21,6.21,4.57-7.48,8.77.91L295,84.46l10.59.36,3.29-2.92,4.93,7.85,4.75,5.67,2.19,7.12,5.3,2.56,20.45-.92,3.29-2.19,3.1,11.32-.54,4.39.36.55,14.61-5.48,3.66,6.94,7.3.18,6.94,3.83,6.76-8,3.1.91.55,4,2.92,8.58,5.12,3.29,4.93,1.46.55,4.93-8.59,13.52,1.46,1.46,4.39.73,10.77,13.52h3.29l5.48,11.69,2.74-.19,2.19-2.55,3.65.54v2.93l1.65-1.1,4.2.73,3.1,3.11,5.67-10.6,1.64-.91.55-4.75,13.33-9.5,3.11,4.2,4.2-.73,13.51-11.69-1.64-7.85,11.87-8.58,6,2.37,13.69-11.87,4.57.18,7.67-10,13.88,23.37,2.56.37,2.37,7.85,8.59,7.13,10.77-5.3.73-5.11,8.77,1.46,5.85,4.38,4.38,6.21,3.47.55,2.56,4,19.72-10.23.18-7.12,12.79-3.84-.37-12.05L635,123.91l9.14-12.06,2.74-16.62h7.3l4.93,2,5.12.55,17.17-8.22,15-.73,26.85-5.3,15.52,4.57,9-.91,2.38-4.75,5.84.91,2.74-4.2,5.85-.55,5.66,4.57L766,86.47,768.72,93l4.75,7.31,1.82.18-.54,4.38-2.93,2,2.74,6.94.55,3.84,2.92.36L777.3,123l4,9.32,7.12-.18,9.68,2,10.41,4.21,9.14,5.66,1.27,4.56,6.58,1.83,1.1,7.31,8.21,4.74,6,8L844,187.83l15.7,26.85,5.48,4.75,8.77,17.35L874.1,247l6.39,6.75-1.82,6-6.21,1.1-7.31,11.32-25.75,25-8.77,13.34-34.15,19.9L774.93,344.9l-7.67,7.49-.55,1.1,12,16.43,7.49,19.73,1.65,10.23h-6.58l-6.76,11,4.75,12.23-8.4,36.9,3.65,19.72,7.67,16.07v9.87l15.16,13.88,32.88,69.58,40.91-15.16,2.92,27.4L888,624.89l-9.13,1.83-20.46,19,12.79,25.57,4.75.73,40.18,18.81,61,32.33L916.84,844.43,831.18,824l-17-10.41-20.09,14.25-23.93,18.81-17.35,20.64-11.51,12.6-21.18,8.4-3.66,9.13-13.7,7.12-5.29,9.32v-5.11l-24.11,15.89-13.88,8.21-7.12,7.86-6.94,1.09-2.2-19-6.94-16.62-28.85-29.22-22.83-32.33-62.83,46.75-41.28,36-42.74-8.4-39.45-5.66L396,898.85l-40.73-45.11-3.29-10.59-15.52-8.22L322.89,819.4l-2.74,8.41-54.24-22.1-1.83-7.13-15-3.28L242,785.8l3.29-12.24-3.65-5.84L240,769.18l-9.31-1.46-9.13-12.61-4.75,1.47-1.65-7.13-5.48-7.67.92-5.48-5.85-2.55L199.24,725l-8.4-.18-8,11.14-7.31-1.65L163.08,742l-23.93,7.49L132,756l-3.83-.19-8,8.59L118,770.09l-9,7.12-1.28-24.65-3.84-2.92.74-32.7-2.93-1.82,2.19-22.83,2.93-1.65-2.93-3.29,1.1-6-5.3-4.75-5.84,1.09V665.25l-6.76-4.2-2.92.37L76.87,650.1l.73-2.56-7.48-8.77.54-16.07,8.77-13.52-.55-22.83-2.37-4.2,2.37-6.75L82,572.11l6,6,.54,2.55L100.25,588l4-.92,10.59,10.23,1.28,4.2,3.11,2.56,6.75,5.11,10.78,11.88,23,4.93,6-.37,3.84,3.65v29.59l8.94,27.76Z"/></g></g></svg>